Coordinates
version=1
nRows=27
nColumns=12
inDegrees=yes

Units are S.I. units (second, meters, Newtons, ...)
Angles are in degrees

endheader
time	SC_y	SC_z	SC_x	AC_y	AC_z	AC_x	GH_y	GH_z	GH_yy	EL_x	PS_y
       0.0              -55.11          14.52          73.96          55.17         -16.05         -16.11          51.54          75.92          179.4          56.92          143.5
   0.04686              -55.11          14.52          73.95          55.17         -16.04         -16.11          51.55          75.92          179.4          56.92          143.5
   0.09372              -55.11          14.51          73.94          55.17         -16.04         -16.11          51.55          75.91          179.4          56.92          143.5
    0.1406              -55.11          14.51          73.93          55.16         -16.04          -16.1          51.56           75.9          179.4          56.92          143.5
    0.1874              -55.11          14.51          73.92          55.16         -16.04          -16.1          51.57          75.89          179.4          56.92          143.5
    0.2343              -55.11          14.51           73.9          55.16         -16.04         -16.09          51.58          75.88          179.4          56.92          143.5
    0.2812              -55.11          14.51          73.89          55.15         -16.03         -16.09          51.58          75.87          179.4          56.92          143.4
     0.328               -55.1          14.51          73.88          55.15         -16.03         -16.08          51.59          75.86          179.4          56.92          143.4
    0.3749               -55.1           14.5          73.86          55.14         -16.03         -16.08           51.6          75.85          179.4          56.92          143.4
    0.4217               -55.1           14.5          73.84          55.14         -16.03         -16.07          51.61          75.84          179.4          56.92          143.4
    0.4686               -55.1           14.5          73.83          55.13         -16.03         -16.07          51.62          75.82          179.4          56.93          143.4
    0.5154               -55.1           14.5          73.81          55.12         -16.02         -16.06          51.63          75.81          179.4          56.93          143.3
    0.5623              -55.09          14.49          73.79          55.12         -16.02         -16.05          51.65          75.79          179.4          56.93          143.3
    0.6092              -55.09          14.49          73.76          55.11         -16.02         -16.05          51.66          75.78          179.4          56.93          143.3
     0.656              -55.09          14.49          73.74           55.1         -16.01         -16.04          51.67          75.76          179.4          56.93          143.3
    0.7029              -55.09          14.48          73.71          55.09         -16.01         -16.03          51.69          75.74          179.4          56.93          143.2
    0.7497              -55.08          14.48          73.68          55.08          -16.0         -16.02          51.71          75.72          179.4          56.93          143.2
    0.7966              -55.08          14.47          73.65          55.07          -16.0         -16.01          51.73          75.69          179.3          56.94          143.2
    0.8435              -55.08          14.47          73.62          55.06          -16.0         -15.99          51.75          75.67          179.3          56.94          143.1
    0.8903              -55.07          14.46          73.58          55.05         -15.99         -15.98          51.77          75.64          179.3          56.94          143.1
    0.9372              -55.07          14.46          73.54          55.03         -15.98         -15.97          51.79          75.61          179.3          56.94          143.0
     0.984              -55.06          14.45           73.5          55.02         -15.98         -15.95          51.82          75.58          179.3          56.95          143.0
     1.031              -55.06          14.45          73.45           55.0         -15.97         -15.93          51.85          75.54          179.3          56.95          142.9
     1.078              -55.05          14.44          73.39          54.98         -15.96         -15.92          51.88           75.5          179.3          56.95          142.8
     1.125              -55.04          14.43          73.33          54.96         -15.95         -15.89          51.92          75.45          179.3          56.96          142.8
     1.171              -55.04          14.42          73.26          54.94         -15.94         -15.87          51.96           75.4          179.2          56.96          142.7
     1.218              -55.03          14.41          73.18          54.92         -15.93         -15.84          52.01          75.34          179.2          56.97          142.6
